<?xml version="1.0" encoding="UTF-8" standalone="no"?>
<!-- Created with Inkscape (http://www.inkscape.org/) -->

<svg
   xmlns:dc="http://purl.org/dc/elements/1.1/"
   xmlns:cc="http://creativecommons.org/ns#"
   xmlns:rdf="http://www.w3.org/1999/02/22-rdf-syntax-ns#"
   xmlns:svg="http://www.w3.org/2000/svg"
   xmlns="http://www.w3.org/2000/svg"
   xmlns:sodipodi="http://sodipodi.sourceforge.net/DTD/sodipodi-0.dtd"
   xmlns:inkscape="http://www.inkscape.org/namespaces/inkscape"
   width="136.4576mm"
   height="33.866669mm"
   viewBox="0 0 136.4576 33.866669"
   version="1.1"
   id="svg937"
   inkscape:version="0.92.4 (5da689c313, 2019-01-14)"
   sodipodi:docname="pdfweet_logo.svg">
  <defs
     id="defs931" />
  <sodipodi:namedview
     id="base"
     pagecolor="#ffffff"
     bordercolor="#666666"
     borderopacity="1.0"
     inkscape:pageopacity="0.0"
     inkscape:pageshadow="2"
     inkscape:zoom="0.98994949"
     inkscape:cx="87.637751"
     inkscape:cy="86.933465"
     inkscape:document-units="mm"
     inkscape:current-layer="g1053"
     showgrid="false"
     fit-margin-top="0"
     fit-margin-left="0"
     fit-margin-right="0"
     fit-margin-bottom="0"
     inkscape:window-width="2560"
     inkscape:window-height="1360"
     inkscape:window-x="-11"
     inkscape:window-y="-11"
     inkscape:window-maximized="1" />
  <metadata
     id="metadata934">
    <rdf:RDF>
      <cc:Work
         rdf:about="">
        <dc:format>image/svg+xml</dc:format>
        <dc:type
           rdf:resource="http://purl.org/dc/dcmitype/StillImage" />
        <dc:title></dc:title>
      </cc:Work>
    </rdf:RDF>
  </metadata>
  <g
     inkscape:label="レイヤー 1"
     inkscape:groupmode="layer"
     id="layer1"
     transform="translate(-22.67981,-131.80237)">
    <g
       style="display:inline"
       id="g1053"
       transform="translate(-28.761138,-17.326868)">
      <g
         id="g833"
         transform="matrix(0.71632218,0,0,0.71632218,14.592656,51.911879)">
        <path
           d="m 51.440948,146.13605 h 3.447851 v 4.96096 q 2.058788,-2.82775 4.737694,-4.24162 2.678905,-1.41388 5.977928,-1.41388 5.754686,0 9.847459,4.14241 4.092771,4.14241 4.092771,9.97154 0,5.95314 -4.067967,10.12033 -4.043163,4.14238 -9.773044,4.14238 -3.224609,0 -5.928319,-1.33945 -2.70371,-1.33946 -4.886522,-3.99356 v 14.51074 h -3.447851 z m 13.890621,2.65411 q -4.514452,0 -7.615037,3.15022 -3.07578,3.15021 -3.07578,7.83832 0,3.0758 1.364257,5.53146 1.389062,2.45567 3.943945,3.89434 2.579686,1.43867 5.432225,1.43867 2.802929,0 5.258592,-1.43867 2.480468,-1.46348 3.943945,-4.06797 1.463476,-2.60449 1.463476,-5.45705 0,-2.87736 -1.463476,-5.45706 -1.438672,-2.5797 -3.894335,-3.99358 -2.455664,-1.43868 -5.357812,-1.43868 z"
           style="font-style:normal;font-variant:normal;font-weight:normal;font-stretch:normal;font-size:50.79998779px;line-height:1.25;font-family:'Century Gothic';-inkscape-font-specification:'Century Gothic';letter-spacing:-1.05833304px;word-spacing:0px;display:inline;fill:#fb5959;fill-opacity:1;stroke:none;stroke-width:0.26458326"
           id="path1878-48"
           inkscape:connector-curvature="0" />
        <path
           d="m 109.7414,135.72339 v 37.40558 h -3.42304 v -4.63848 q -2.18282,2.6541 -4.91133,3.99356 -2.703706,1.33945 -5.928329,1.33945 -5.729886,0 -9.797855,-4.14238 -4.043164,-4.16719 -4.043164,-10.12032 0,-5.82913 4.092774,-9.97155 4.092773,-4.14241 9.847466,-4.14241 3.323842,0 6.002738,1.41388 2.70371,1.41387 4.7377,4.24163 v -15.37896 z m -13.890629,13.0721 q -2.902154,0 -5.357815,1.43868 -2.455664,1.41388 -3.919141,3.99358 -1.438672,2.5797 -1.438672,5.45707 0,2.85256 1.463477,5.45705 1.463476,2.60449 3.919141,4.06797 2.480466,1.43867 5.308211,1.43867 2.852542,0 5.407428,-1.43867 2.55488,-1.43867 3.91914,-3.89434 1.38906,-2.45566 1.38906,-5.53146 0,-4.68811 -3.10059,-7.83833 -3.07578,-3.15021 -7.590239,-3.15022 z"
           style="font-style:normal;font-variant:normal;font-weight:normal;font-stretch:normal;font-size:50.79998779px;line-height:1.25;font-family:'Century Gothic';-inkscape-font-specification:'Century Gothic';letter-spacing:-1.05833304px;word-spacing:0px;display:inline;fill:#fb5959;fill-opacity:1;stroke:none;stroke-width:0.26458326"
           id="path1880-6"
           inkscape:connector-curvature="0" />
        <path
           d="m 127.81648,146.83591 h 3.57188 l 8.25996,19.59579 8.65684,-19.59579 h 0.62011 l 8.63202,19.59579 8.40879,-19.59579 h 3.62149 l -11.70782,26.98759 h -0.66971 l -8.58242,-19.3229 -8.65684,19.3229 h -0.64492 z"
           style="font-style:normal;font-variant:normal;font-weight:normal;font-stretch:normal;font-size:50.79999924px;line-height:1.25;font-family:'Century Gothic';-inkscape-font-specification:'Century Gothic';letter-spacing:-1.05833328px;word-spacing:0px;display:inline;fill:#60c9f1;fill-opacity:0.99607843;stroke:none;stroke-width:0.26458332"
           id="path1882-0"
           inkscape:connector-curvature="0" />
        <path
           d="m 194.0471,164.17448 2.92696,1.53789 q -1.43868,2.82773 -3.32385,4.56406 -1.88514,1.73633 -4.24159,2.6541 -2.35645,0.89297 -5.333,0.89297 -6.59805,0 -10.31875,-4.31601 -3.72072,-4.34082 -3.72072,-9.79787 0,-5.1346 3.15022,-9.15298 3.99353,-5.1098 10.6908,-5.1098 6.89571,0 11.01328,5.23382 2.92695,3.69592 2.97656,9.22739 h -24.25897 q 0.0992,4.71291 3.00135,7.73908 2.90217,3.00137 7.16856,3.00137 2.0588,0 3.99356,-0.71933 1.95956,-0.71934 3.32382,-1.90997 1.36427,-1.19062 2.95177,-3.84472 z m 0,-7.26781 q -0.69453,-2.77814 -2.03398,-4.44006 -1.31467,-1.66193 -3.49748,-2.67892 -2.18281,-1.017 -4.58887,-1.017 -3.96875,0 -6.82127,2.55489 -2.08361,1.86037 -3.15019,5.58109 z"
           style="font-style:normal;font-variant:normal;font-weight:normal;font-stretch:normal;font-size:50.79999924px;line-height:1.25;font-family:'Century Gothic';-inkscape-font-specification:'Century Gothic';letter-spacing:-1.05833328px;word-spacing:0px;display:inline;fill:#60c9f1;fill-opacity:0.99607843;stroke:none;stroke-width:0.26458332"
           id="path1884-1"
           inkscape:connector-curvature="0" />
        <path
           d="m 224.30882,164.17448 2.92695,1.53789 q -1.43869,2.82773 -3.32382,4.56406 -1.88518,1.73633 -4.24162,2.6541 -2.35644,0.89297 -5.333,0.89297 -6.59806,0 -10.31875,-4.31601 -3.7207,-4.34082 -3.7207,-9.79787 0,-5.1346 3.15019,-9.15298 3.99356,-5.1098 10.69082,-5.1098 6.89569,0 11.01327,5.23382 2.92697,3.69592 2.97656,9.22739 h -24.25896 q 0.0992,4.71291 3.00137,7.73908 2.90213,3.00137 7.16853,3.00137 2.05879,0 3.99356,-0.71933 1.95959,-0.71934 3.32384,-1.90997 1.36426,-1.19062 2.95176,-3.84472 z m 0,-7.26781 q -0.69455,-2.77814 -2.03399,-4.44006 -1.31464,-1.66193 -3.49745,-2.67892 -2.18282,-1.017 -4.58887,-1.017 -3.96875,0 -6.82131,2.55489 -2.08357,1.86037 -3.15019,5.58109 z"
           style="font-style:normal;font-variant:normal;font-weight:normal;font-stretch:normal;font-size:50.79999924px;line-height:1.25;font-family:'Century Gothic';-inkscape-font-specification:'Century Gothic';letter-spacing:-1.05833328px;word-spacing:0px;display:inline;fill:#60c9f1;fill-opacity:0.99607843;stroke:none;stroke-width:0.26458332"
           id="path1886-9"
           inkscape:connector-curvature="0" />
        <path
           d="m 232.93436,136.81479 h 3.49748 v 10.02112 h 5.50663 v 2.97658 h -5.50663 v 24.01101 h -3.49748 v -24.01101 h -4.73769 v -2.97658 h 4.73769 z"
           style="font-style:normal;font-variant:normal;font-weight:normal;font-stretch:normal;font-size:50.79999924px;line-height:1.25;font-family:'Century Gothic';-inkscape-font-specification:'Century Gothic';letter-spacing:-1.05833328px;word-spacing:0px;display:inline;fill:#60c9f1;fill-opacity:0.99607843;stroke:none;stroke-width:0.26458332"
           id="path1888-1"
           inkscape:connector-curvature="0" />
        <g
           id="g1041">
          <path
             style="font-style:normal;font-variant:normal;font-weight:normal;font-stretch:normal;font-size:50.79998779px;line-height:1.25;font-family:'Century Gothic';-inkscape-font-specification:'Century Gothic';letter-spacing:-1.05833304px;word-spacing:0px;display:inline;fill:#fb5959;fill-opacity:1;stroke:none;stroke-width:0.26458326"
             d="m 123.18161,135.71736 c -1.20717,0 -2.2407,0.25632 -3.10059,0.76895 -0.17316,0.10185 -0.33385,0.21234 -0.48679,0.32814 h 1.65261 v 6.36912 c 0,-1.53789 0.0579,-2.48047 0.17363,-2.82773 0.11576,-0.36381 0.39687,-0.678 0.84336,-0.94258 0.44649,-0.28112 1.00873,-0.42168 1.68672,-0.42168 0.90951,0 2.00091,0.27285 3.27422,0.81855 v -3.39824 c -1.57097,-0.46302 -2.91869,-0.69453 -4.04316,-0.69453 z"
             id="path1890-5"
             inkscape:connector-curvature="0" />
          <path
             style="font-style:normal;font-variant:normal;font-weight:normal;font-stretch:normal;font-size:50.79998779px;line-height:1.25;font-family:'Century Gothic';-inkscape-font-specification:'Century Gothic';letter-spacing:-1.05833304px;word-spacing:0px;display:inline;fill:#60c9f1;fill-opacity:0.99607843;stroke:none;stroke-width:0.26458326"
             d="m 119.59423,136.81445 h -1.84455 l -3e-4,5.79861 c 0,-1.93476 0.17363,-3.31556 0.5209,-4.14238 0.2891,-0.65706 0.73199,-1.20803 1.32395,-1.65623 z"
             id="path1892-7"
             inkscape:connector-curvature="0"
             sodipodi:nodetypes="ccccc" />
          <path
             inkscape:connector-curvature="0"
             style="font-style:normal;font-variant:normal;font-weight:normal;font-stretch:normal;font-size:50.79998779px;line-height:1.25;font-family:'Century Gothic';-inkscape-font-specification:'Century Gothic';letter-spacing:-1.05833304px;word-spacing:0px;display:inline;fill:#9c8299;fill-opacity:1;stroke:none;stroke-width:0.26458326"
             d="m 119.59423,136.81445 c -0.59196,0.4482 -1.03485,0.99917 -1.32395,1.65623 -0.34727,0.82682 -0.5206,2.20762 -0.5206,4.14238 v 4.21648 h -4.738 l 9e-5,2.97723 4.7377,-4.1e-4 -9e-5,24.01102 3e-4,0.006 h 3.49716 l 9e-5,-24.01684 h 5.63066 l -9e-5,-2.97682 h -5.63082 v -3.64611 -6.36913 z"
             id="path1894-2"
             sodipodi:nodetypes="ccscccccccccccccc" />
        </g>
      </g>
    </g>
  </g>
</svg>
